<?xml version="1.0" encoding="UTF-8"?>
<svg width="24px" height="20px" viewBox="0 0 24 20" version="1.1" xmlns="http://www.w3.org/2000/svg" xmlns:xlink="http://www.w3.org/1999/xlink">
    <!-- Generator: Sketch 62 (91390) - https://sketch.com -->
    <title>Shape</title>
    <desc>Created with Sketch.</desc>
    <g id="Page-1" stroke="none" stroke-width="1" fill="none" fill-rule="evenodd">
        <g id="Desktop-HD-V8-Toolbar-Closed" transform="translate(-391.000000, -210.000000)" fill="#FFFFFF" fill-rule="nonzero">
            <g id="tools-navigation-(closed)" transform="translate(0.000000, 195.000000)">
                <g id="Business-Tools-" transform="translate(391.000000, 15.000000)">
                    <g id="business-icon">
                        <path d="M22,7 L22,18 L2,18 L2,7 L22,7 Z M24,5 L0,5 L0,20 L24,20 L24,5 Z M9,0 C7.896,0 7,0.896 7,2 L7,4 L9,4 L9,2.5 C9,2.224 9.224,2 9.5,2 L14.5,2 C14.776,2 15,2.224 15,2.5 L15,4 L17,4 L17,2 C17,0.896 16.104,0 15,0 L9,0 Z M11.268,16 C13.097,12.719 14.368,11.033 16.103,9.519 L15.877,9 C13.773,10.309 12.642,11.295 10.928,13.239 C10.018,12.589 9.504,12.291 8.693,11.899 L8,12.54 C9.386,13.824 10.139,14.671 11.268,16 Z" id="Shape"></path>
                    </g>
                </g>
            </g>
        </g>
    </g>
</svg>