<?xml version="1.0" encoding="utf-8"?>
<!-- Generator: Adobe Illustrator 20.1.0, SVG Export Plug-In . SVG Version: 6.00 Build 0)  -->
<svg version="1.1" id="Capa_1" xmlns="http://www.w3.org/2000/svg" xmlns:xlink="http://www.w3.org/1999/xlink" x="0px" y="0px"
	 viewBox="0 0 512 512" style="enable-background:new 0 0 512 512;" xml:space="preserve">
<style type="text/css">
	.st0{fill:#6D6D6D;}
</style>
<g>
	<g>
		<path class="st0" d="M255.9,150.6c-58.8,0-106.7,47.9-106.7,106.7S197.1,364,255.9,364s106.7-47.9,106.7-106.7
			S314.7,150.6,255.9,150.6z M255.9,321.3c-35.3,0-64-28.7-64-64s28.7-64,64-64c35.3,0,64,28.7,64,64S291.2,321.3,255.9,321.3z"/>
	</g>
</g>
<g>
	<g>
		<path class="st0" d="M493.7,193.5l-60.7-9.8l36.3-48.2c6.4-8.5,5.6-20.3-1.9-27.8l-60.6-61.5c-7.5-7.6-19.5-8.5-28-2.1l-49.6,34.8
			l-9.6-59.8C318,8.8,309.1,1.2,298.6,1.2h-85.4c-10.6,0-19.6,7.8-21.1,18.3l-10,60.5l-49.3-36.1c-8.5-6.2-20.2-5.3-27.7,2.1
			l-60.4,60.2c-7.6,7.5-8.4,19.4-2,28l35.4,49.5l-59.8,8.5C7.8,193.7,0,202.7,0,213.3v85.4c0,10.6,7.8,19.6,18.3,21.1l60.7,9.8
			l-36.3,48.2c-6.4,8.5-5.6,20.4,2,27.9l60.4,60.4c7.5,7.6,19.4,8.3,27.9,2l49.5-35.4l8.5,59.8c1.5,10.5,10.5,18.3,21.1,18.3h85.4
			c10.6,0,19.6-7.8,21.1-18.2l9.8-60.7l48.2,36.3c8.5,6.4,20.4,5.6,27.9-2l60.4-60.4c7.5-7.5,8.4-19.4,2-27.9L431,328.5l62.1-7.3
			C503.9,320,512,310.9,512,300v-85.4C512,204,504.2,195,493.7,193.5z M469.3,281l-43.6,5.1c-15.9,2.1-29.1,12.7-34,26.4
			c-6.2,14-4.4,30.4,4.8,42.8l25.1,33.4l-34.2,34.2L354,397.6c-12.4-9.1-28.7-10.9-41.3-5.2c-15,5.4-25.7,18.7-27.7,34.3l-5.9,41.4
			h-48.4l-5.9-41.2c-2.1-15.9-12.7-29.1-26.4-34c-14-6.2-30.3-4.4-42.8,4.8l-33.4,25.1L88,388.7l25.2-33.5
			c9.1-12.3,10.9-28.7,5.2-41.3c-5.5-15-18.7-25.7-34.3-27.7l-41.4-5.9v-48.4l41.2-5.9c15.9-2.1,29.1-12.7,34-26.4
			c6.2-14,4.4-30.3-4.8-42.8L88,123.3l34.3-34.2l34.5,25.2c12.3,9.1,28.7,10.9,41.3,5.2c15-5.5,25.7-18.8,27.7-34.3l5.9-41.4h48.7
			L287,85c2,15.9,12.7,29.2,26.4,34.1c14,6.1,30.3,4.4,42.7-4.8l33.3-24.9l34.7,35.1l-25.3,33.7c-9.1,12.3-10.9,28.7-5.2,41.4
			c5.5,15,18.8,25.7,34.3,27.7l41.4,5.9L469.3,281L469.3,281z"/>
	</g>
</g>
</svg>
