<?xml version="1.0" encoding="UTF-8"?>
<svg width="20px" height="24px" viewBox="0 0 20 24" version="1.1" xmlns="http://www.w3.org/2000/svg" xmlns:xlink="http://www.w3.org/1999/xlink">
    <!-- Generator: Sketch 62 (91390) - https://sketch.com -->
    <title>Shape</title>
    <desc>Created with Sketch.</desc>
    <g id="Page-1" stroke="none" stroke-width="1" fill="none" fill-rule="evenodd">
        <g id="Desktop-HD-V8-Toolbar-Closed" transform="translate(-568.000000, -208.000000)" fill="#FFFFFF">
            <g id="tools-navigation-(closed)" transform="translate(0.000000, 195.000000)">
                <g id="Instruction-Tools" transform="translate(568.000000, 13.000000)">
                    <g id="instruction-icon-new">
                        <path d="M20,24 L3,24 C1.343,24 0,22.657 0,21 L0,3 C0,1.343 1.343,0 3,0 L20,0 L20,24 Z M18,20 L3.495,20 C2.12,20 2.12,22 3.495,22 L18,22 L18,20 Z M18,2 L3,2 L3,18 L18,18 L18,2 Z M15,5 L15,8 L6,8 L6,5 L15,5 Z" id="Shape"></path>
                    </g>
                </g>
            </g>
        </g>
    </g>
</svg>