<?xml version="1.0" encoding="UTF-8"?>
<svg width="18px" height="24px" viewBox="0 0 18 24" version="1.1" xmlns="http://www.w3.org/2000/svg" xmlns:xlink="http://www.w3.org/1999/xlink">
    <!-- Generator: Sketch 62 (91390) - https://sketch.com -->
    <title>Shape</title>
    <desc>Created with Sketch.</desc>
    <g id="Page-1" stroke="none" stroke-width="1" fill="none" fill-rule="evenodd">
        <g id="Desktop-HD-V8-Toolbar-Closed" transform="translate(-754.000000, -208.000000)" fill="#FFFFFF" fill-rule="nonzero">
            <g id="tools-navigation-(closed)" transform="translate(0.000000, 195.000000)">
                <g id="Research-tools" transform="translate(754.000000, 13.000000)">
                    <g id="research-icon">
                        <path d="M13,1 C13,1.552 12.553,2 12,2 L6,2 C5.447,2 5,1.552 5,1 C5,0.448 5.447,0 6,0 L12,0 C12.553,0 13,0.448 13,1 Z M17.759,20.498 L14.016,12.642 C12.975,10.456 12,8.061 12,5.635 L12,4 L10,4 L10,6 C10.09,8.711 11.164,11.305 12.21,13.502 L15.953,21.356 C16.096,21.658 15.885,22 15.576,22 L2.423,22 C2.123,22 1.901,21.661 2.047,21.358 L5.789,13.501 C6.836,11.305 7.904,8.71 7.994,6 L8,4 L6,4 L6,5.635 C6,8.061 5.025,10.455 3.984,12.641 L0.241,20.497 C0.076,20.845 0,21.205 0,21.555 C0,22.838 1.023,24 2.423,24 L15.576,24 C16.976,24 18,22.838 18,21.554 C18,21.204 17.924,20.845 17.759,20.498 L17.759,20.498 Z M8,19.5 C8,18.671 7.328,18 6.5,18 C5.672,18 5,18.671 5,19.5 C5,20.329 5.672,21 6.5,21 C7.328,21 8,20.329 8,19.5 Z M10,16 C10,15.447 9.552,15 9,15 C8.447,15 8,15.447 8,16 C8,16.553 8.447,17 9,17 C9.552,17 10,16.553 10,16 Z M13,19 C13,18.448 12.552,18 12,18 C11.447,18 11,18.448 11,19 C11,19.552 11.447,20 12,20 C12.552,20 13,19.552 13,19 Z" id="Shape"></path>
                    </g>
                </g>
            </g>
        </g>
    </g>
</svg>