<?xml version="1.0" encoding="utf-8"?>
<!-- Generator: Adobe Illustrator 24.3.0, SVG Export Plug-In . SVG Version: 6.00 Build 0)  -->
<svg version="1.1" id="Layer_1" xmlns="http://www.w3.org/2000/svg" xmlns:xlink="http://www.w3.org/1999/xlink" x="0px" y="0px"
	 viewBox="0 0 700 700" style="enable-background:new 0 0 700 700;" xml:space="preserve">
<style type="text/css">
	.st0{fill:#747678;}
</style>
<g>
	<path class="st0" d="M194.7,157.5v-44.9c0-3-1.2-5.8-3.3-7.9s-5-3.3-7.9-3.3H26.2c-6.2,0-11.2,5-11.2,11.2v44.9H194.7z"/>
	<path class="st0" d="M15,180v370.7h179.7V180H15z M149.8,326H59.9c-6.2,0-11.2-5-11.2-11.2v-89.9c0-6.2,5-11.2,11.2-11.2h89.9
		c3,0,5.8,1.2,7.9,3.3c2.1,2.1,3.3,5,3.3,7.9v89.9c0,3-1.2,5.8-3.3,7.9C155.6,324.8,152.8,326,149.8,326z"/>
	<path class="st0" d="M15,618.1v56.2c0,3,1.2,5.8,3.3,7.9c2.1,2.1,5,3.3,7.9,3.3h157.3c3,0,5.8-1.2,7.9-3.3c2.1-2.1,3.3-5,3.3-7.9
		v-56.2H15z"/>
	<path class="st0" d="M15,573.1h179.7v22.5H15V573.1z"/>
	<path class="st0" d="M217.2,573.1h146v22.5h-146L217.2,573.1L217.2,573.1z"/>
	<path class="st0" d="M363.2,56.4V22.7c0-3-1.2-5.8-3.3-7.9s-5-3.3-7.9-3.3H228.4c-6.2,0-11.2,5-11.2,11.2v33.7H363.2z"/>
	<path class="st0" d="M217.2,135.1h146v415.6h-146L217.2,135.1L217.2,135.1z"/>
	<path class="st0" d="M217.2,618.1v56.2c0,3,1.2,5.8,3.3,7.9c2.1,2.1,5,3.3,7.9,3.3H352c3,0,5.8-1.2,7.9-3.3s3.3-5,3.3-7.9v-56.2
		H217.2z"/>
	<path class="st0" d="M217.2,78.9h146v33.7h-146L217.2,78.9L217.2,78.9z"/>
	<path class="st0" d="M385.4,244.1l6,23.1l190.2-50.7l-6-23.1L385.4,244.1z"/>
	<path class="st0" d="M479.3,604l190.2-50.7l-12-46.2l-190.2,50.7L479.3,604z"/>
	<path class="st0" d="M651.8,485.3l-64.5-247.1l-190.2,50.7L461.6,536L651.8,485.3z"/>
	<path class="st0" d="M379.7,222.4L570,171.7l-16.1-61.9c-1.7-6-7.8-9.6-13.8-8.1l-168.5,44.9c-6,1.6-9.5,7.7-8,13.7L379.7,222.4z"
		/>
	<path class="st0" d="M675.2,575L485,625.7l13.4,51.4c0.8,2.9,2.7,5.4,5.3,6.8c1.7,1,3.6,1.6,5.6,1.6c1,0,2-0.1,2.9-0.3l168.5-44.9
		c6-1.6,9.5-7.7,8-13.7L675.2,575z"/>
</g>
</svg>
