<?xml version="1.0" encoding="utf-8"?>
<!-- Generator: Adobe Illustrator 24.3.0, SVG Export Plug-In . SVG Version: 6.00 Build 0)  -->
<svg version="1.1" id="Layer_1" xmlns="http://www.w3.org/2000/svg" xmlns:xlink="http://www.w3.org/1999/xlink" x="0px" y="0px"
	 viewBox="0 0 41.2 41" style="enable-background:new 0 0 41.2 41;" xml:space="preserve">
<style type="text/css">
	.st0{fill:#747678;}
</style>
<g>
	<path class="st0" d="M11.2,9V6.2c0-0.2-0.1-0.3-0.2-0.5c-0.1-0.1-0.3-0.2-0.5-0.2H1.1c-0.4,0-0.7,0.3-0.7,0.7V9H11.2z"/>
	<path class="st0" d="M0.4,10.3v22.3h10.8V10.3H0.4z M8.5,19.1H3.1c-0.4,0-0.7-0.3-0.7-0.7V13c0-0.4,0.3-0.7,0.7-0.7h5.4
		c0.2,0,0.3,0.1,0.5,0.2c0.1,0.1,0.2,0.3,0.2,0.5v5.4c0,0.2-0.1,0.3-0.2,0.5C8.9,19,8.7,19.1,8.5,19.1z"/>
	<path class="st0" d="M0.4,36.7v3.4c0,0.2,0.1,0.3,0.2,0.5c0.1,0.1,0.3,0.2,0.5,0.2h9.5c0.2,0,0.3-0.1,0.5-0.2
		c0.1-0.1,0.2-0.3,0.2-0.5v-3.4H0.4z"/>
	<path class="st0" d="M0.4,34h10.8v1.4H0.4V34z"/>
	<path class="st0" d="M12.6,34h8.8v1.4h-8.8L12.6,34L12.6,34z"/>
	<path class="st0" d="M21.4,2.9v-2c0-0.2-0.1-0.3-0.2-0.5c-0.1-0.1-0.3-0.2-0.5-0.2h-7.4c-0.4,0-0.7,0.3-0.7,0.7v2H21.4z"/>
	<path class="st0" d="M12.6,7.6h8.8v25h-8.8L12.6,7.6L12.6,7.6z"/>
	<path class="st0" d="M12.6,36.7v3.4c0,0.2,0.1,0.3,0.2,0.5c0.1,0.1,0.3,0.2,0.5,0.2h7.4c0.2,0,0.3-0.1,0.5-0.2
		c0.1-0.1,0.2-0.3,0.2-0.5v-3.4H12.6z"/>
	<path class="st0" d="M12.6,4.2h8.8v2h-8.8L12.6,4.2L12.6,4.2z"/>
	<path class="st0" d="M22.7,14.2l0.4,1.4l11.5-3.1l-0.4-1.4L22.7,14.2z"/>
	<path class="st0" d="M28.4,35.8l11.5-3.1L39.1,30l-11.5,3.1L28.4,35.8z"/>
	<path class="st0" d="M38.8,28.7l-3.9-14.9l-11.5,3.1l3.9,14.9L38.8,28.7z"/>
	<path class="st0" d="M22.4,12.9l11.5-3.1l-1-3.7c-0.1-0.4-0.5-0.6-0.8-0.5L21.9,8.3c-0.4,0.1-0.6,0.5-0.5,0.8L22.4,12.9z"/>
	<path class="st0" d="M40.2,34.1l-11.5,3.1l0.8,3.1c0,0.2,0.2,0.3,0.3,0.4c0.1,0.1,0.2,0.1,0.3,0.1c0.1,0,0.1,0,0.2,0L40.5,38
		c0.4-0.1,0.6-0.5,0.5-0.8L40.2,34.1z"/>
</g>
</svg>
