<?xml version="1.0" encoding="utf-8"?>
<!-- Generator: Adobe Illustrator 24.3.0, SVG Export Plug-In . SVG Version: 6.00 Build 0)  -->
<svg version="1.1" id="Layer_1" xmlns="http://www.w3.org/2000/svg" xmlns:xlink="http://www.w3.org/1999/xlink" x="0px" y="0px"
	 viewBox="0 0 52 53.5" style="enable-background:new 0 0 52 53.5;" xml:space="preserve">
<style type="text/css">
	.st0{fill:#182B49;}
</style>
<g>
	<path class="st0" d="M14.3,11.8V8.3c0-0.3-0.1-0.4-0.3-0.6c-0.1-0.1-0.4-0.3-0.6-0.3H1.7c-0.5,0-0.9,0.4-0.9,0.9v3.5H14.3z"/>
	<path class="st0" d="M0.8,13.5v28h13.5v-28H0.8z M11,24.5H4.2c-0.5,0-0.9-0.4-0.9-0.9v-6.8c0-0.5,0.4-0.9,0.9-0.9H11
		c0.3,0,0.4,0.1,0.6,0.3c0.1,0.1,0.3,0.4,0.3,0.6v6.8c0,0.3-0.1,0.4-0.3,0.6C11.5,24.4,11.2,24.5,11,24.5z"/>
	<path class="st0" d="M0.8,46.6v4.3c0,0.3,0.1,0.4,0.3,0.6c0.1,0.1,0.4,0.3,0.6,0.3h11.9c0.3,0,0.4-0.1,0.6-0.3
		c0.1-0.1,0.3-0.4,0.3-0.6v-4.3H0.8z"/>
	<path class="st0" d="M0.8,43.2h13.5V45H0.8V43.2z"/>
	<path class="st0" d="M16.1,43.2h11V45h-11V43.2L16.1,43.2z"/>
	<path class="st0" d="M27.1,4.2V1.7c0-0.3-0.1-0.4-0.3-0.6c-0.1-0.1-0.4-0.3-0.6-0.3H17c-0.5,0-0.9,0.4-0.9,0.9v2.5H27.1z"/>
	<path class="st0" d="M16.1,10.1h11v31.3h-11V10.1L16.1,10.1z"/>
	<path class="st0" d="M16.1,46.6v4.3c0,0.3,0.1,0.4,0.3,0.6c0.1,0.1,0.4,0.3,0.6,0.3h9.3c0.3,0,0.4-0.1,0.6-0.3
		c0.1-0.1,0.3-0.4,0.3-0.6v-4.3H16.1z"/>
	<path class="st0" d="M16.1,5.8h11v2.5h-11V5.8L16.1,5.8z"/>
	<path class="st0" d="M28.8,18.4l0.5,1.8l14.4-3.9l-0.5-1.8L28.8,18.4z"/>
	<path class="st0" d="M35.9,45.4l14.4-3.9l-1-3.4L34.9,42L35.9,45.4z"/>
	<path class="st0" d="M48.9,36.5L44,17.9l-14.4,3.9l4.9,18.7L48.9,36.5z"/>
	<path class="st0" d="M28.4,16.7l14.4-3.9l-1.3-4.6c-0.1-0.5-0.6-0.8-1-0.6L27.8,11c-0.5,0.1-0.8,0.6-0.6,1L28.4,16.7z"/>
	<path class="st0" d="M50.7,43.3l-14.4,3.9l1,3.9c0,0.3,0.3,0.4,0.4,0.5c0.1,0.1,0.3,0.1,0.4,0.1s0.1,0,0.3,0l12.8-3.5
		c0.5-0.1,0.8-0.6,0.6-1L50.7,43.3z"/>
</g>
</svg>
