<?xml version="1.0" encoding="utf-8"?>
<!-- Generator: Adobe Illustrator 24.3.0, SVG Export Plug-In . SVG Version: 6.00 Build 0)  -->
<svg version="1.1" id="Layer_1" xmlns="http://www.w3.org/2000/svg" xmlns:xlink="http://www.w3.org/1999/xlink" x="0px" y="0px"
	 viewBox="0 0 40 40" style="enable-background:new 0 0 40 40;" xml:space="preserve">
<style type="text/css">
	.st0{fill-rule:evenodd;clip-rule:evenodd;fill:#182B49;}
</style>
<g>
	<path class="st0" d="M39.6,7.8h-6.7v2.9h-3.3V7.8H10.4v2.9H7.1V7.8H0.4v6.1h39.2C39.6,13.9,39.6,7.8,39.6,7.8z M9.3,4.7v4.8H8.2
		V4.7H9.3z M31.8,4.7v4.8h-1.1V4.7C30.7,4.7,31.8,4.7,31.8,4.7z M31.8,18.3H35v3.2h-3.2V18.3z M26.4,18.3h3.2v3.2h-3.2V18.3z
		 M21.1,18.3h3.2v3.2h-3.2V18.3z M15.7,18.3h3.2v3.2h-3.2V18.3z M10.4,18.3h3.2v3.2h-3.2V18.3z M31.8,23.5H35v3.2h-3.2V23.5z
		 M26.4,23.5h3.2v3.2h-3.2V23.5z M21.1,23.5h3.2v3.2h-3.2V23.5z M15.7,23.5h3.2v3.2h-3.2V23.5z M10.4,23.5h3.2v3.2h-3.2V23.5z
		 M5,23.5h3.2v3.2H5V23.5z M26.4,28.6h3.2v3.2h-3.2V28.6z M21.1,28.6h3.2v3.2h-3.2V28.6z M15.7,28.6h3.2v3.2h-3.2V28.6z M10.4,28.6
		h3.2v3.2h-3.2V28.6z M5,28.6h3.2v3.2H5V28.6z M0.4,15v22h39.2V15H0.4z"/>
</g>
</svg>
