<?xml version="1.0" encoding="utf-8"?>
<!-- Generator: Adobe Illustrator 24.3.0, SVG Export Plug-In . SVG Version: 6.00 Build 0)  -->
<svg version="1.1" id="Layer_1" xmlns="http://www.w3.org/2000/svg" xmlns:xlink="http://www.w3.org/1999/xlink" x="0px" y="0px"
	 viewBox="0 0 41.7 34.2" style="enable-background:new 0 0 41.7 34.2;" xml:space="preserve">
<style type="text/css">
	.st0{fill-rule:evenodd;clip-rule:evenodd;fill:#747678;}
</style>
<g>
	<path class="st0" d="M41.5,3.4h-7v3H31v-3H10.9v3H7.5v-3h-7v6.4h41V3.4z M9.8,0.2v5H8.6v-5H9.8z M33.3,0.2v5h-1.1v-5H33.3z
		 M33.3,14.4h3.3v3.3h-3.3V14.4z M27.7,14.4H31v3.3h-3.3V14.4z M22.1,14.4h3.3v3.3h-3.3V14.4z M16.5,14.4h3.3v3.3h-3.3V14.4z
		 M10.9,14.4h3.3v3.3h-3.3V14.4z M33.3,19.8h3.3v3.3h-3.3V19.8z M27.7,19.8H31v3.3h-3.3V19.8z M22.1,19.8h3.3v3.3h-3.3V19.8z
		 M16.5,19.8h3.3v3.3h-3.3V19.8z M10.9,19.8h3.3v3.3h-3.3V19.8z M5.3,19.8h3.3v3.3H5.3V19.8z M27.7,25.2H31v3.3h-3.3V25.2z
		 M22.1,25.2h3.3v3.3h-3.3V25.2z M16.5,25.2h3.3v3.3h-3.3V25.2z M10.9,25.2h3.3v3.3h-3.3V25.2z M5.3,25.2h3.3v3.3H5.3V25.2z
		 M0.5,10.9v23.1h41V10.9H0.5z"/>
</g>
</svg>
