<?xml version="1.0" encoding="utf-8"?>
<!-- Generator: Adobe Illustrator 24.3.0, SVG Export Plug-In . SVG Version: 6.00 Build 0)  -->
<svg version="1.1" id="Layer_1" xmlns="http://www.w3.org/2000/svg" xmlns:xlink="http://www.w3.org/1999/xlink" x="0px" y="0px"
	 viewBox="0 0 700 700" style="enable-background:new 0 0 700 700;" xml:space="preserve">
<style type="text/css">
	.st0{fill-rule:evenodd;clip-rule:evenodd;fill:#747678;}
</style>
<g>
	<path class="st0" d="M693,107.1H576.1V157h-56.7v-49.9H185.6V157h-56.7v-49.9H12V213h681V107.1z M166.7,54.7V138h-18.9V54.7H166.7z
		 M557.2,54.7V138h-18.9V54.7H557.2z M556.9,290h55.6v55.6h-55.6V290z M464,290h55.6v55.6H464V290z M371.1,290h55.6v55.6h-55.6V290z
		 M278.3,290h55.6v55.6h-55.6V290z M185.4,290H241v55.6h-55.6V290z M556.9,379.7h55.6v55.6h-55.6V379.7z M464,379.7h55.6v55.6H464
		V379.7z M371.1,379.7h55.6v55.6h-55.6V379.7z M278.3,379.7h55.6v55.6h-55.6V379.7z M185.4,379.7H241v55.6h-55.6V379.7z M92.6,379.7
		h55.6v55.6H92.6V379.7z M464,469.4h55.6V525H464V469.4z M371.2,469.4h55.6V525h-55.6V469.4z M278.3,469.4h55.6V525h-55.6V469.4z
		 M185.4,469.4H241V525h-55.6V469.4z M92.6,469.4h55.6V525H92.6V469.4z M12,231.9V615h681V231.9H12z"/>
</g>
</svg>
