<?xml version="1.0" encoding="utf-8"?>
<!-- Generator: Adobe Illustrator 24.3.0, SVG Export Plug-In . SVG Version: 6.00 Build 0)  -->
<svg version="1.1" id="Layer_1" xmlns="http://www.w3.org/2000/svg" xmlns:xlink="http://www.w3.org/1999/xlink" x="0px" y="0px"
	 viewBox="0 0 700 700" style="enable-background:new 0 0 700 700;" xml:space="preserve">
<style type="text/css">
	.st0{fill:#FFFFFF;}
</style>
<g>
	<path class="st0" d="M475,187.7c-8.5,0-15.4-6.9-15.4-15.4V12H94.8v673h540.4l0-497.3L475,187.7z M208.5,527.1h313
		c8.5,0,15.4,6.9,15.4,15.4s-6.9,15.4-15.4,15.4l-313,0c-8.5,0-15.4-6.9-15.4-15.4C193.1,534,200,527.1,208.5,527.1L208.5,527.1z
		 M521.5,473.6h-313c-8.5,0-15.4-6.9-15.4-15.4c0-8.5,6.9-15.4,15.4-15.4h313c8.5,0,15.4,6.9,15.4,15.4
		C536.9,466.6,530,473.6,521.5,473.6z M521.5,389.2h-313c-8.5,0-15.4-6.9-15.4-15.4c0-4.1,1.6-8,4.5-10.9c2.9-2.9,6.8-4.5,10.9-4.5
		h0h313c8.5,0,15.4,6.9,15.4,15.4C536.9,382.2,530,389.2,521.5,389.2L521.5,389.2z M521.5,304.8h-313c-8.5,0-15.4-6.9-15.4-15.4
		c0-8.5,6.9-15.4,15.4-15.4h313c4.1,0,8,1.6,10.9,4.5c2.9,2.9,4.5,6.8,4.5,10.9C536.9,297.8,530,304.8,521.5,304.8L521.5,304.8z
		 M613.4,156.8l-123,0l0-122.9L613.4,156.8z"/>
</g>
</svg>
