<?xml version="1.0" encoding="utf-8"?>
<!-- Generator: Adobe Illustrator 24.3.0, SVG Export Plug-In . SVG Version: 6.00 Build 0)  -->
<svg version="1.1" id="Layer_1" xmlns="http://www.w3.org/2000/svg" xmlns:xlink="http://www.w3.org/1999/xlink" x="0px" y="0px"
	 viewBox="0 0 40 40" style="enable-background:new 0 0 40 40;" xml:space="preserve">
<style type="text/css">
	.st0{fill:#182B49;}
</style>
<g>
	<path class="st0" d="M27,10.6c-0.5,0-0.8-0.4-0.8-0.8V0.6H5.3V39h30.9V10.6H27z M11.8,30.1h17.9c0.5,0,0.8,0.4,0.8,0.8
		s-0.4,0.8-0.8,0.8H11.8c-0.5,0-0.8-0.4-0.8-0.8S11.3,30.1,11.8,30.1L11.8,30.1z M29.7,27H11.8c-0.5,0-0.8-0.4-0.8-0.8
		s0.4-0.8,0.8-0.8h17.9c0.5,0,0.8,0.4,0.8,0.8S30.1,27,29.7,27z M29.7,22.1H11.8c-0.5,0-0.8-0.4-0.8-0.8c0-0.2,0.1-0.5,0.2-0.6
		c0.2-0.2,0.4-0.2,0.6-0.2l0,0h17.9c0.5,0,0.8,0.4,0.8,0.8C30.5,21.8,30.1,22.1,29.7,22.1L29.7,22.1z M29.7,17.4H11.8
		c-0.5,0-0.8-0.4-0.8-0.8c0-0.5,0.4-0.8,0.8-0.8h17.9c0.2,0,0.5,0.1,0.6,0.2c0.2,0.2,0.2,0.4,0.2,0.6C30.5,17,30.1,17.4,29.7,17.4
		L29.7,17.4z M34.9,8.9h-7v-7L34.9,8.9z"/>
</g>
</svg>
