<?xml version="1.0" encoding="utf-8"?>
<!-- Generator: Adobe Illustrator 24.3.0, SVG Export Plug-In . SVG Version: 6.00 Build 0)  -->
<svg version="1.1" id="Layer_1" xmlns="http://www.w3.org/2000/svg" xmlns:xlink="http://www.w3.org/1999/xlink" x="0px" y="0px"
	 viewBox="0 0 41.5 51.6" style="enable-background:new 0 0 41.5 51.6;" xml:space="preserve">
<style type="text/css">
	.st0{fill:#747678;}
</style>
<g>
	<path class="st0" d="M29,13.8c-0.6,0-1.1-0.5-1.1-1.1V0.8h-27v49.8h40V13.8H29z M9.3,39h23.2c0.6,0,1.1,0.5,1.1,1.1
		c0,0.6-0.5,1.1-1.1,1.1H9.3c-0.6,0-1.1-0.5-1.1-1.1C8.2,39.5,8.7,39,9.3,39L9.3,39z M32.5,35H9.3c-0.6,0-1.1-0.5-1.1-1.1
		c0-0.6,0.5-1.1,1.1-1.1h23.2c0.6,0,1.1,0.5,1.1,1.1C33.6,34.5,33.1,35,32.5,35z M32.5,28.7H9.3c-0.6,0-1.1-0.5-1.1-1.1
		c0-0.3,0.1-0.6,0.3-0.8c0.2-0.2,0.5-0.3,0.8-0.3l0,0h23.2c0.6,0,1.1,0.5,1.1,1.1C33.6,28.2,33.1,28.7,32.5,28.7L32.5,28.7z
		 M32.5,22.5H9.3c-0.6,0-1.1-0.5-1.1-1.1s0.5-1.1,1.1-1.1h23.2c0.3,0,0.6,0.1,0.8,0.3c0.2,0.2,0.3,0.5,0.3,0.8
		C33.6,22,33.1,22.5,32.5,22.5L32.5,22.5z M39.3,11.5h-9.1V2.4L39.3,11.5z"/>
</g>
</svg>
