<?xml version="1.0" encoding="utf-8"?>
<!-- Generator: Adobe Illustrator 24.3.0, SVG Export Plug-In . SVG Version: 6.00 Build 0)  -->
<svg version="1.1" id="Layer_1" xmlns="http://www.w3.org/2000/svg" xmlns:xlink="http://www.w3.org/1999/xlink" x="0px" y="0px"
	 viewBox="0 0 45.4 50.1" style="enable-background:new 0 0 45.4 50.1;" xml:space="preserve">
<style type="text/css">
	.st0{fill:#747678;}
</style>
<g id="Black_Logo_HS">
	<path class="st0" d="M1.7,32.8L1.7,32.8c0,0.3,0,0.6,0,1c0,3.9,0,7.8,0,11.7c0,1.9,1.4,3.6,3.3,3.7c2.7,0.1,5.3,0,8,0
		c1.9,0,3.6-1.8,3.6-4c-0.1-2.5,0-5,0.1-7.5c0-3.4,0.1-6.8,0.1-10.2c0-0.6,0.1-0.7,0.7-0.9c1.3-0.4,2.7-0.4,4.1-0.1
		c2.5,0.5,4.3,2.5,4.6,5c0.1,1.3,0.1,2.6,0.2,3.8c0.1,3.3,0.1,6.7,0.1,10c0,2.2,1.6,3.8,3.8,3.8c2.4,0,4.8,0,7.2,0
		c2.3,0,3.9-1.6,3.9-3.8c0-6.9,0-13.8,0-20.6c0-0.1,0-0.2,0-0.3c-0.1-0.7-0.3-1.3-1-1.7c-0.4-0.3-0.9-0.5-1.4-0.6
		c-1.9-0.5-3.9-0.5-5.9-0.2c-1.5,0.2-3,0.6-4.5,0.9c-2,0.4-4,0.5-6,0.4c-2.6-0.3-4.8-1.4-6.9-2.8c-1-0.7-2-1.4-3-2
		c-1.3-0.8-2.7-1-4.1-1.1c-1.6-0.1-3.1-0.1-4.7,0.2c-1.2,0.3-1.8,1-2,2.2c0,0.3,0,0.5,0,0.8C1.8,24.5,1.7,28.7,1.7,32.8z M9.2,15.2
		c4.1,0,7.5-3.3,7.5-7.5c0-4.1-3.3-7.5-7.5-7.5S1.7,3.6,1.7,7.7c0,0,0,0,0,0C1.7,11.9,5.1,15.2,9.2,15.2L9.2,15.2z M41.2,11.6
		c0-4.1-3.3-7.5-7.5-7.5c-4.1,0-7.5,3.3-7.5,7.5s3.3,7.5,7.5,7.5c0,0,0,0,0,0C37.8,19.1,41.2,15.7,41.2,11.6z"/>
</g>
</svg>
