<?xml version="1.0" encoding="utf-8"?>
<!-- Generator: Adobe Illustrator 24.3.0, SVG Export Plug-In . SVG Version: 6.00 Build 0)  -->
<svg version="1.1" id="Layer_1" xmlns="http://www.w3.org/2000/svg" xmlns:xlink="http://www.w3.org/1999/xlink" x="0px" y="0px"
	 viewBox="0 0 700 700" style="enable-background:new 0 0 700 700;" xml:space="preserve">
<style type="text/css">
	.st0{fill:#747678;}
</style>
<g id="Black_Logo_HS">
	<path class="st0" d="M77.7,459.9h-0.2c0,4.4,0,8.8,0,13.2c0,53.4-0.2,106.9,0,160.3c0,26.6,19,49,45.4,50.1
		c36.6,1.6,73.3,0.6,110.2,0.6c26.7,0,50-24.2,49.3-54.7c-0.8-34.2,0.5-68.5,0.8-102.7c0.4-46.5,0.8-93.1,1.3-139.7
		c0-8.5,1.3-10.1,9.4-12.2c18.4-5.2,37.7-5.8,56.3-1.9c34.4,7.3,59.6,33.9,63.3,68.8c1.8,17.4,1.9,35,2.2,52.5
		c0.7,45.8,1,91.8,1.5,137.8c0.3,30.5,22.3,52.6,52.7,52.7c32.8,0.2,65.5,0.2,98.3,0.2c31,0,53.1-21.8,53.1-52.7
		c0.2-94.4,0.3-188.7,0.2-283.1c0-1.5,0-3.1,0-4.4c-0.9-9.9-4.7-18.3-13.5-23.4c-6.1-3.6-12.6-6.4-19.5-8.2
		c-26.5-6.4-53.9-7.5-80.8-3.4c-20.8,3.2-41.3,8.2-61.9,12.4c-27,5.8-54.7,7.5-82.1,5c-35.5-3.6-66.4-18.7-95.3-38.7
		c-13.7-9.5-27.5-18.8-41.8-27.5c-17.3-10.6-36.6-14.1-56.8-15.3c-21.5-1.2-43-1.7-64.1,3.1c-16.5,3.8-25.2,13.4-27.1,30.1
		c-0.4,3.5-0.6,7.1-0.6,10.6C77.8,346.3,77.7,403.1,77.7,459.9z M180,218.8c56.8,0.2,103-45.8,103.2-102.6S237.4,13.2,180.6,13
		S77.6,58.8,77.4,115.6c0,0.1,0,0.1,0,0.2C77.3,172.6,123.2,218.6,180,218.8L180,218.8z M618.9,168.8c0.2-56.8-45.8-103-102.6-103.2
		s-103,45.8-103.2,102.6s45.8,103,102.6,103.2c0.1,0,0.1,0,0.2,0C572.6,271.5,618.7,225.6,618.9,168.8z"/>
</g>
</svg>
