<?xml version="1.0" encoding="utf-8"?>
<!-- Generator: Adobe Illustrator 24.3.0, SVG Export Plug-In . SVG Version: 6.00 Build 0)  -->
<svg version="1.1" id="Layer_1" xmlns="http://www.w3.org/2000/svg" xmlns:xlink="http://www.w3.org/1999/xlink" x="0px" y="0px"
	 viewBox="0 0 40 29.4" style="enable-background:new 0 0 40 29.4;" xml:space="preserve">
<style type="text/css">
	.st0{fill:#747678;}
</style>
<g>
	<path class="st0" d="M0.2,1.8C0.1,2.2,0,2.6,0,3v23.4c0,0.4,0.1,0.8,0.2,1.2l12.9-12.9L0.2,1.8z"/>
	<path class="st0" d="M39.8,1.8L26.9,14.7l12.9,12.9c0.2-0.4,0.2-0.8,0.2-1.2V3C40,2.6,39.9,2.2,39.8,1.8L39.8,1.8z"/>
	<path class="st0" d="M20,17.2c0.8,0,1.5-0.3,2.1-0.9L38.2,0.2C37.8,0.1,37.4,0,37,0H3C2.6,0,2.2,0.1,1.8,0.2l16.1,16.1
		C18.5,16.9,19.2,17.2,20,17.2L20,17.2z"/>
	<path class="st0" d="M23.7,17.9c-1,1-2.3,1.5-3.7,1.5s-2.7-0.5-3.7-1.5l-1.6-1.6L1.8,29.2c0.4,0.2,0.7,0.2,1.1,0.2h34
		c0.4,0,0.8-0.1,1.2-0.2L25.3,16.3L23.7,17.9z"/>
</g>
</svg>
