<?xml version="1.0" encoding="utf-8"?>
<!-- Generator: Adobe Illustrator 24.3.0, SVG Export Plug-In . SVG Version: 6.00 Build 0)  -->
<svg version="1.1" id="Layer_1" xmlns="http://www.w3.org/2000/svg" xmlns:xlink="http://www.w3.org/1999/xlink" x="0px" y="0px"
	 viewBox="0 0 700 700" style="enable-background:new 0 0 700 700;" xml:space="preserve">
<style type="text/css">
	.st0{fill:#747678;}
</style>
<g>
	<path class="st0" d="M12,99c-2.7,6.2-4,12.9-4,19.7v400.5c0,6.8,1.3,13.5,4,19.7l220-220L12,99z"/>
	<path class="st0" d="M688,99L468,319l220,220c2.7-6.2,4-12.9,4-19.7V118.7C692,112,690.7,105.3,688,99L688,99z"/>
	<path class="st0" d="M350,361.3c13.5,0,26.4-5.4,36-14.9L660.7,71.7c-6.2-2.7-12.9-4-19.7-4H58.9c-6.8,0-13.5,1.3-19.7,4
		l274.7,274.7C323.5,355.9,336.5,361.3,350,361.3L350,361.3z"/>
	<path class="st0" d="M413.3,373.7c-16.8,16.7-39.6,26.1-63.3,26.1s-46.5-9.4-63.3-26.1l-27.4-27.4l-220,220c6.2,2.7,12.8,4,19.6,4
		H641c6.8,0,13.5-1.3,19.7-4l-220-220L413.3,373.7z"/>
</g>
</svg>
