<?xml version="1.0" encoding="utf-8"?>
<!-- Generator: Adobe Illustrator 24.3.0, SVG Export Plug-In . SVG Version: 6.00 Build 0)  -->
<svg version="1.1" id="Layer_1" xmlns="http://www.w3.org/2000/svg" xmlns:xlink="http://www.w3.org/1999/xlink" x="0px" y="0px"
	 viewBox="0 0 52 53.5" style="enable-background:new 0 0 52 53.5;" xml:space="preserve">
<style type="text/css">
	.st0{fill:#182B49;}
</style>
<g>
	<path class="st0" d="M0.9,11.1c-0.1,0.5-0.3,1-0.3,1.5v29.9c0,0.5,0.1,1,0.3,1.5l16.5-16.5L0.9,11.1z"/>
	<path class="st0" d="M51.4,11.1L34.9,27.6l16.5,16.5c0.3-0.5,0.3-1,0.3-1.5V12.7C51.7,12.2,51.5,11.7,51.4,11.1L51.4,11.1z"/>
	<path class="st0" d="M26.1,30.8c1,0,1.9-0.4,2.7-1.1L49.4,9.1c-0.5-0.1-1-0.3-1.5-0.3H4.4c-0.5,0-1,0.1-1.5,0.3l20.6,20.6
		C24.2,30.4,25.1,30.8,26.1,30.8L26.1,30.8z"/>
	<path class="st0" d="M30.9,31.7c-1.3,1.3-2.9,1.9-4.7,1.9s-3.4-0.6-4.7-1.9l-2-2L2.9,46.1c0.5,0.3,0.9,0.3,1.4,0.3h43.4
		c0.5,0,1-0.1,1.5-0.3L32.9,29.7L30.9,31.7z"/>
</g>
</svg>
