<?xml version="1.0" encoding="utf-8"?>
<!-- Generator: Adobe Illustrator 24.3.0, SVG Export Plug-In . SVG Version: 6.00 Build 0)  -->
<svg version="1.1" id="Layer_1" xmlns="http://www.w3.org/2000/svg" xmlns:xlink="http://www.w3.org/1999/xlink" x="0px" y="0px"
	 viewBox="0 0 52 53.5" style="enable-background:new 0 0 52 53.5;" xml:space="preserve">
<style type="text/css">
	.st0{fill:#747678;}
</style>
<g>
	<path class="st0" d="M48.7,17.9c-2.9,2.9-7.2,3.7-10.7,2.2L19.6,38.4c1.4,3.6,0.7,7.8-2.2,10.7c-2.6,2.6-6.3,3.5-9.6,2.6l7.1-7.1
		L12.5,40l-4.7-2.3l-7.1,7.1c-0.9-3.3-0.1-7.1,2.6-9.6c2.9-2.9,7.2-3.7,10.7-2.2l18.5-18.3c-1.4-3.6-0.7-7.8,2.2-10.7
		c2.6-2.6,6.3-3.5,9.6-2.6l-7.1,7.1l2.3,4.7l4.7,2.3l7.1-7.1C52.2,11.5,51.3,15.3,48.7,17.9L48.7,17.9z"/>
</g>
</svg>
