<?xml version="1.0" encoding="utf-8"?>
<!-- Generator: Adobe Illustrator 24.3.0, SVG Export Plug-In . SVG Version: 6.00 Build 0)  -->
<svg version="1.1" id="Layer_1" xmlns="http://www.w3.org/2000/svg" xmlns:xlink="http://www.w3.org/1999/xlink" x="0px" y="0px"
	 viewBox="0 0 700 700" style="enable-background:new 0 0 700 700;" xml:space="preserve">
<style type="text/css">
	.st0{fill:#747678;}
</style>
<g>
	<path class="st0" d="M611.9,245.4c-33.4,33.4-82.5,42.2-123.7,25.5L276.2,482c16.7,41.2,7.9,90.3-25.5,123.7
		c-30.4,30.4-72.6,40.2-110.9,29.5l81.5-81.5l-26.5-54l-54-26.5l-81.5,81.5c-10.8-38.3-1-81.5,29.5-110.9
		c33.4-33.4,82.5-42.2,123.7-25.5l213-211c-16.7-41.2-7.9-90.3,25.5-123.7c30.4-30.4,72.6-40.2,110.9-29.5l-81.5,81.5l26.5,54
		l54,26.5l81.5-81.5C652.2,171.7,642.3,214.9,611.9,245.4L611.9,245.4z"/>
</g>
</svg>
