<?xml version="1.0" encoding="utf-8"?>
<!-- Generator: Adobe Illustrator 24.3.0, SVG Export Plug-In . SVG Version: 6.00 Build 0)  -->
<svg version="1.1" id="Layer_1" xmlns="http://www.w3.org/2000/svg" xmlns:xlink="http://www.w3.org/1999/xlink" x="0px" y="0px"
	 viewBox="0 0 40 40" style="enable-background:new 0 0 40 40;" xml:space="preserve">
<style type="text/css">
	.st0{fill:#182B49;}
</style>
<g>
	<path class="st0" d="M33.7,14.2c-1.9,1.9-4.8,2.4-7.1,1.5L14.4,27.8c1,2.4,0.4,5.2-1.5,7.1c-1.7,1.7-4.1,2.3-6.4,1.7l4.7-4.7
		l-1.6-3l-3.1-1.6L1.8,32c-0.6-2.2-0.1-4.7,1.7-6.4c1.9-1.9,4.8-2.4,7.1-1.5L23,12c-1-2.4-0.4-5.2,1.5-7.1c1.7-1.7,4.1-2.3,6.4-1.7
		L26.1,8l1.6,3.1l3.1,1.6l4.7-4.7C36.1,10,35.5,12.5,33.7,14.2L33.7,14.2z"/>
</g>
</svg>
