<?xml version="1.0" encoding="utf-8"?>
<!-- Generator: Adobe Illustrator 25.2.3, SVG Export Plug-In . SVG Version: 6.00 Build 0)  -->
<svg version="1.1" id="Layer_1" xmlns="http://www.w3.org/2000/svg" xmlns:xlink="http://www.w3.org/1999/xlink" x="0px" y="0px"
	 viewBox="0 0 24 24" style="enable-background:new 0 0 24 24;" xml:space="preserve">
<path d="M23.7,4.5L20,8.3c-1.9,0.4-4.7-2.3-4.2-4.2l3.8-3.8C18.9,0.1,18.3,0,17.7,0c-1.6,0-3.2,0.6-4.4,1.8c-1.4,1.4-2,3.2-1.8,4.9
	c0.1,0.9-0.3,1.9-0.9,2.5l-9.7,9.7C0.3,19.5,0,20.3,0,21c0,1.7,1.4,3,3,3c0.7,0,1.5-0.3,2-0.9l9.7-9.7c0.7-0.7,1.6-1,2.5-0.9
	c1.8,0.1,3.6-0.5,4.9-1.8C23.4,9.5,24,7.9,24,6.3C24,5.7,23.9,5.1,23.7,4.5z"/>
</svg>
