<?xml version="1.0" encoding="utf-8"?>
<!-- Generator: Adobe Illustrator 24.3.0, SVG Export Plug-In . SVG Version: 6.00 Build 0)  -->
<svg version="1.1" id="_x33_color" xmlns="http://www.w3.org/2000/svg" xmlns:xlink="http://www.w3.org/1999/xlink" x="0px" y="0px"
	 viewBox="0 0 404.2 81.2" style="enable-background:new 0 0 404.2 81.2;" xml:space="preserve">
<style type="text/css">
	.st0{fill:#0E284B;}
	.st1{fill:#C89211;}
	.st2{fill:#F5AC00;}
	.st3{fill:#005A86;}
</style>
<g>
	<path class="st0" d="M26.4,41.3c0,6.4-0.9,11.3-10.7,11.3c-9.7,0-11.2-4.7-11.2-11.3V25.7c0-3.5-1.5-3.8-4.1-3.8v-0.9h12.3v0.9
		c-2.5,0-4.1,0.3-4.1,3.8v15.6c0,4.8,1.1,9.5,7.2,9.5c6.7,0,7.8-3.9,7.8-9.5V25.7c0-3.5-1.5-3.8-4.1-3.8v-0.9h10.8v0.9
		c-2.6,0-4.1,0.3-4.1,3.8L26.4,41.3L26.4,41.3z"/>
	<path class="st0" d="M52.3,51.3c-2.3,0.8-4.9,1.3-8.4,1.3c-9.4,0-13.9-7.1-13.9-17.1c0-8.7,2.8-15,12.8-15c3.8,0,6.9,0.8,9,1.3
		l0.4,7.4h-1.2c-0.6-2.6-2.5-6.8-8.3-6.8c-7.5,0-8.1,8-8.1,12.8c0,6,1.3,15.3,11.6,15.3c3.1,0,4.8-0.7,6-1.2
		C52.3,49.3,52.3,51.3,52.3,51.3z"/>
	<path class="st0" d="M77.5,27.7c-0.4-2.5-2.3-5.4-7.3-5.4c-3.1,0-5.9,2-5.9,5.1c0,4.2,5.6,5.5,9.6,7.9c3.7,2.2,6.2,4.1,6.2,8.5
		c0,6-5.2,8.8-11.6,8.8c-3.2,0-6.9-0.7-8-0.9l-0.3-6.6h1.2c0.4,2.5,2.6,5.4,7.6,5.4c4.1,0,6.8-2.7,6.8-5.9c0-5-7.8-6.6-12.1-9.9
		c-2.1-1.6-3-3.3-3-6.3c0-5.6,4.6-7.9,10.5-7.9c3.1,0,5.2,0.4,7.2,0.8l0.3,6.4L77.5,27.7L77.5,27.7z"/>
	<path class="st0" d="M93.1,42.9c-2,0-7.3,0.4-7.3,4.3c0,2.2,1.4,3.6,2.8,3.6c2.7,0,4.5-2.6,4.5-5.5V42.9z M99.2,52.2
		c-0.5,0.1-1.5,0.4-3,0.4c-2.4,0-3.1-1.2-3.1-3H93c-1.3,1.9-3.1,3-5.9,3c-2.9,0-5-2-5-4.7c0-6,7.8-6,11-6.3v-1.6c0-2.9,0-6-3.5-6
		c-2.6,0-2.9,1.1-2.9,2.4c0,1.7-1.2,2.2-2,2.2c-1.1,0-2-0.8-2-1.9c0-2.7,4-4.1,6.9-4.1c5.7,0,6.7,2.8,6.7,6.6v10.3
		c0,1.5,0.5,2,1.8,2c0.4,0,0.8-0.1,1.1-0.2L99.2,52.2L99.2,52.2z"/>
	<path class="st0" d="M100.1,51.4c1.8,0,3.2-0.4,3.2-3.1V37c0-2.5-2-2.6-3.2-2.7v-0.7l6.4-1V38h0.1c0.6-1.5,2.5-5.5,6.6-5.5
		c4.4,0,4.8,2.4,4.8,6.3v9.5c0,2.7,1.4,3.1,3.2,3.1v0.7h-9.6v-0.7c1.8,0,3.2-0.4,3.2-3.1v-8.6c0-3.6,0-5.2-2.8-5.2
		c-2.5,0-5.5,4.7-5.5,8.7v5.1c0,2.7,1.4,3.1,3.2,3.1v0.7h-9.6L100.1,51.4L100.1,51.4z"/>
	<path class="st0" d="M134.2,46.3c0,3.4,0.4,3.9,2.7,3.9c8.1,0,11.4-4.3,11.4-13.7c0-8.6-2.5-13.8-11.4-13.8c-2.3,0-2.7,0.3-2.7,3.9
		V46.3z M126,51.2c2.5,0,4.1-0.3,4.1-3.8V25.7c0-3.5-1.6-3.8-4.1-3.8v-0.9h11c7.8,0,16,1.7,16,15.6c0,13.9-8.7,15.5-16,15.5H126
		L126,51.2L126,51.2z"/>
	<path class="st0" d="M156.9,26.3c0-1.3,1-2.4,2.4-2.4s2.4,1,2.4,2.4c0,1.3-1,2.4-2.4,2.4C158,28.7,156.9,27.7,156.9,26.3
		 M154.6,51.4c1.8,0,3.2-0.4,3.2-3.1V37c0-2.5-1.9-2.6-3.2-2.7v-0.7l6.4-1v15.8c0,2.7,1.4,3.1,3.2,3.1v0.7h-9.6L154.6,51.4
		L154.6,51.4z"/>
	<path class="st0" d="M176.1,39c0-2.2-0.8-5.1-4-5.1c-3.2,0-4.4,3.5-4.4,5.1C167.7,39,176.1,39,176.1,39z M179.3,51.8
		c-1,0.4-2.4,0.8-5,0.8c-6.4,0-10.1-3.5-10.1-10.5c0-6.1,2.5-9.5,8.4-9.5c3.8,0,7.1,2.1,7.1,6.9v0.9h-12.1c0,3.5,1.7,10.6,8.7,10.6
		c1,0,2.1-0.1,2.9-0.5L179.3,51.8L179.3,51.8z"/>
	<path class="st0" d="M189.8,44.5c3.5,0,4-2.8,4-5c0-3.1-1.1-5.6-4.1-5.6c-3.3,0-3.9,2.4-3.9,4.8C185.7,41.9,186.8,44.5,189.8,44.5
		 M186.2,51.7c-0.8,0.6-2,1.3-2,3.2c0,2.5,2.2,4.6,5.8,4.6c3.8,0,7.3-2,7.3-5c0-2.1-1.8-2.8-3.8-2.8L186.2,51.7L186.2,51.7z
		 M193.4,48.8c2,0,6.6,0.1,6.6,4.7c0,4.8-4.7,7.4-10.2,7.4c-4.1,0-8.3-1.5-8.3-5.3c0-2.6,1.9-3.7,3.2-4.4c-0.7-0.4-1.8-1.2-1.8-3
		c0-1.5,1.3-3.1,1.8-3.6c-1-0.8-2.4-2-2.4-5.6c0-5.4,3.9-6.5,7.9-6.5c1.9,0,3,0.3,4.3,1c0.7-1.6,1.7-4.5,4.2-4.5c1.2,0,2,0.8,2,2
		c0,1.1-0.7,1.9-2,1.9c-1.1,0-1.3-0.6-1.9-0.6c-0.9,0-1.3,1.2-1.5,1.9c0.5,0.5,1.9,2.1,1.9,5c0,4.2-2.6,6.6-7.6,6.6
		c-1.7,0-2.9-0.2-3.8-0.6c-0.2,0.3-0.8,1-0.8,1.9c0,1.7,2.1,1.7,3.4,1.7H193.4z"/>
	<path class="st0" d="M208.7,51.2c4.2,0,5-5.2,5-8.6s-0.8-8.6-5-8.6s-5,5.2-5,8.6S204.6,51.2,208.7,51.2 M200,42.5
		c0-6.2,3.4-10,8.7-10s8.7,3.8,8.7,10s-3.4,10-8.7,10C203.4,52.5,200,48.8,200,42.5"/>
	<path class="st1" d="M180.7,59.3H0.5v1.1h181.2C181.3,60,181,59.7,180.7,59.3"/>
	<path class="st1" d="M217.1,59.3h-17.8c-0.4,0.4-0.8,0.7-1.2,1.1h19V59.3z"/>
</g>
<rect x="248.5" y="0.5" class="st0" width="1.1" height="80.2"/>
<path class="st2" d="M294.4,38.8h-4.7v13.1H287V38.8h-4.7v-2.1h12V38.8z"/>
<path class="st2" d="M302,46H299v5.8h-2.6V36.6h5.3c1.8,0,3.1,0.4,4.1,1.2c1,0.8,1.4,1.9,1.4,3.4c0,1-0.2,1.9-0.7,2.6
	c-0.5,0.7-1.2,1.2-2,1.6l3.4,6.3v0.1H305L302,46z M299,43.8h2.7c0.9,0,1.6-0.2,2.1-0.7c0.5-0.4,0.8-1.1,0.8-1.8
	c0-0.8-0.2-1.4-0.7-1.9c-0.5-0.4-1.2-0.7-2.1-0.7H299V43.8z"/>
<path class="st2" d="M312.5,51.8h-2.6V36.6h2.6V51.8z"/>
<path class="st2" d="M326.4,38.8h-4.7v13.1H319V38.8h-4.7v-2.1h12V38.8z"/>
<path class="st2" d="M340.2,44.6c0,1.5-0.3,2.8-0.8,3.9c-0.5,1.1-1.2,2-2.2,2.6c-1,0.6-2.1,0.9-3.3,0.9c-1.2,0-2.3-0.3-3.3-0.9
	c-1-0.6-1.7-1.5-2.2-2.6c-0.5-1.1-0.8-2.4-0.8-3.8v-0.9c0-1.5,0.3-2.8,0.8-3.9c0.5-1.1,1.3-2,2.2-2.6c1-0.6,2.1-0.9,3.3-0.9
	s2.3,0.3,3.3,0.9s1.7,1.4,2.2,2.6c0.5,1.1,0.8,2.4,0.8,3.9V44.6z M337.6,43.8c0-1.7-0.3-3-1-3.9c-0.6-0.9-1.5-1.3-2.7-1.3
	c-1.1,0-2,0.4-2.7,1.3c-0.6,0.9-1,2.2-1,3.8v0.9c0,1.7,0.3,3,1,3.9c0.6,0.9,1.6,1.4,2.7,1.4c1.2,0,2.1-0.4,2.7-1.3
	c0.6-0.9,0.9-2.2,0.9-3.9V43.8z"/>
<path class="st2" d="M354.9,51.8h-2.6L345.5,41v10.8h-2.6V36.6h2.6l6.8,10.8V36.6h2.6V51.8z"/>
<path class="st3" d="M360.6,49.7h6.9v2.1H358V36.6h2.6V49.7z"/>
<path class="st3" d="M372.3,51.8h-2.6V36.6h2.6V51.8z"/>
<path class="st3" d="M387.6,51.8H385L378.2,41v10.8h-2.6V36.6h2.6l6.8,10.8V36.6h2.6V51.8z"/>
<path class="st3" d="M395.1,45.3l-1.7,1.8v4.7h-2.6V36.6h2.6v7.1l1.5-1.8l4.4-5.3h3.2l-5.6,6.7l6,8.5h-3.1L395.1,45.3z"/>
</svg>
