<?xml version="1.0" encoding="utf-8"?>
<!-- Generator: Adobe Illustrator 24.3.0, SVG Export Plug-In . SVG Version: 6.00 Build 0)  -->
<svg version="1.1" id="_x33_color" xmlns="http://www.w3.org/2000/svg" xmlns:xlink="http://www.w3.org/1999/xlink" x="0px" y="0px"
	 viewBox="0 0 404.2 81.2" style="enable-background:new 0 0 404.2 81.2;" xml:space="preserve">
<style type="text/css">
	.st0{fill:#0E284B;}
	.st1{fill:#C89211;}
	.st2{fill:#F5AC00;}
	.st3{fill:#005A86;}
</style>
<g>
	<path class="st0" d="M26.8,41.2c0,5.2-0.7,9.3-8.8,9.3c-8,0-9.2-3.9-9.2-9.3V28.4c0-2.9-1.2-3.1-3.4-3.1v-0.7h10.1v0.7
		c-2,0-3.4,0.2-3.4,3.1v12.8c0,3.9,0.9,7.8,5.9,7.8c5.5,0,6.4-3.2,6.4-7.8V28.4c0-2.9-1.2-3.1-3.4-3.1v-0.7H30v0.7
		c-2.1,0-3.4,0.2-3.4,3.1L26.8,41.2L26.8,41.2z"/>
	<path class="st0" d="M48,49.4c-1.9,0.7-4,1.1-6.9,1.1c-7.7,0-11.4-5.8-11.4-14c0-7.1,2.3-12.3,10.5-12.3c3.1,0,5.7,0.7,7.4,1.1
		l0.3,6.1h-1c-0.5-2.1-2-5.6-6.8-5.6c-6.1,0-6.6,6.6-6.6,10.5c0,4.9,1.1,12.5,9.5,12.5c2.5,0,3.9-0.6,4.9-1C48,47.8,48,49.4,48,49.4
		z"/>
	<path class="st0" d="M68.7,30c-0.3-2-1.9-4.4-6-4.4c-2.5,0-4.8,1.6-4.8,4.2c0,3.4,4.6,4.5,7.9,6.5c3,1.8,5.1,3.4,5.1,7
		c0,4.9-4.3,7.2-9.5,7.2c-2.6,0-5.7-0.6-6.6-0.7l-0.2-5.4h1c0.3,2,2.1,4.4,6.2,4.4c3.4,0,5.6-2.2,5.6-4.8c0-4.1-6.4-5.4-9.9-8.1
		c-1.7-1.3-2.5-2.7-2.5-5.2c0-4.6,3.8-6.5,8.6-6.5c2.5,0,4.3,0.3,5.9,0.7l0.2,5.2L68.7,30L68.7,30z"/>
	<path class="st0" d="M81.5,42.5c-1.6,0-6,0.3-6,3.5c0,1.8,1.1,3,2.3,3c2.2,0,3.7-2.1,3.7-4.5V42.5z M86.5,50.1
		c-0.4,0.1-1.2,0.3-2.5,0.3c-2,0-2.5-1-2.5-2.5h-0.1c-1.1,1.6-2.5,2.5-4.8,2.5c-2.4,0-4.1-1.6-4.1-3.9c0-4.9,6.4-4.9,9-5.2v-1.3
		c0-2.4,0-4.9-2.9-4.9c-2.1,0-2.4,0.9-2.4,2c0,1.4-1,1.8-1.6,1.8c-0.9,0-1.6-0.7-1.6-1.6c0-2.2,3.3-3.4,5.7-3.4
		c4.7,0,5.5,2.3,5.5,5.4v8.4c0,1.2,0.4,1.6,1.5,1.6c0.3,0,0.7-0.1,0.9-0.2V50.1L86.5,50.1z"/>
	<path class="st0" d="M87.2,49.5c1.5,0,2.6-0.3,2.6-2.5v-9.3c0-2-1.6-2.1-2.6-2.2v-0.6l5.2-0.8v4.4h0.1c0.5-1.2,2-4.5,5.4-4.5
		c3.6,0,3.9,2,3.9,5.2v7.8c0,2.2,1.1,2.5,2.6,2.5V50h-7.9v-0.6c1.5,0,2.6-0.3,2.6-2.5v-7.1c0-3,0-4.3-2.3-4.3c-2,0-4.5,3.9-4.5,7.1
		v4.2c0,2.2,1.1,2.5,2.6,2.5V50h-7.9L87.2,49.5L87.2,49.5z"/>
	<path class="st0" d="M115.2,45.3c0,2.8,0.3,3.2,2.2,3.2c6.6,0,9.3-3.5,9.3-11.2c0-7.1-2-11.3-9.3-11.3c-1.9,0-2.2,0.2-2.2,3.2V45.3
		z M108.5,49.3c2,0,3.4-0.2,3.4-3.1V28.4c0-2.9-1.3-3.1-3.4-3.1v-0.7h9c6.4,0,13.1,1.4,13.1,12.8S123.5,50,117.5,50h-9V49.3
		L108.5,49.3z"/>
	<path class="st0" d="M133.8,28.9c0-1.1,0.8-2,2-2c1.1,0,2,0.8,2,2c0,1.1-0.8,2-2,2C134.7,30.9,133.8,30,133.8,28.9 M131.9,49.5
		c1.5,0,2.6-0.3,2.6-2.5v-9.3c0-2-1.6-2.1-2.6-2.2v-0.6l5.2-0.8v13c0,2.2,1.1,2.5,2.6,2.5v0.6h-7.9L131.9,49.5L131.9,49.5z"/>
	<path class="st0" d="M149.5,39.3c0-1.8-0.7-4.2-3.3-4.2c-2.6,0-3.6,2.9-3.6,4.2C142.6,39.3,149.5,39.3,149.5,39.3z M152.2,49.8
		c-0.8,0.3-2,0.7-4.1,0.7c-5.2,0-8.3-2.9-8.3-8.6c0-5,2-7.8,6.9-7.8c3.1,0,5.8,1.7,5.8,5.7v0.7h-9.9c0,2.9,1.4,8.7,7.1,8.7
		c0.8,0,1.7-0.1,2.4-0.4L152.2,49.8L152.2,49.8z"/>
	<path class="st0" d="M160.8,43.8c2.9,0,3.3-2.3,3.3-4.1c0-2.5-0.9-4.6-3.4-4.6c-2.7,0-3.2,2-3.2,3.9
		C157.4,41.7,158.3,43.8,160.8,43.8 M157.8,49.7c-0.7,0.5-1.6,1.1-1.6,2.6c0,2,1.8,3.8,4.8,3.8c3.1,0,6-1.6,6-4.1
		c0-1.7-1.5-2.3-3.1-2.3H157.8L157.8,49.7z M163.7,47.3c1.6,0,5.4,0.1,5.4,3.9c0,3.9-3.9,6.1-8.4,6.1c-3.4,0-6.8-1.2-6.8-4.3
		c0-2.1,1.6-3,2.6-3.6c-0.6-0.3-1.5-1-1.5-2.5c0-1.2,1.1-2.5,1.5-3c-0.8-0.7-2-1.6-2-4.6c0-4.4,3.2-5.3,6.5-5.3
		c1.6,0,2.5,0.2,3.5,0.8c0.6-1.3,1.4-3.7,3.4-3.7c1,0,1.6,0.7,1.6,1.6c0,0.9-0.6,1.6-1.6,1.6c-0.9,0-1.1-0.5-1.6-0.5
		c-0.7,0-1.1,1-1.2,1.6c0.4,0.4,1.6,1.7,1.6,4.1c0,3.4-2.1,5.4-6.2,5.4c-1.4,0-2.4-0.2-3.1-0.5c-0.2,0.2-0.7,0.8-0.7,1.6
		c0,1.4,1.7,1.4,2.8,1.4L163.7,47.3L163.7,47.3z"/>
	<path class="st0" d="M176.3,49.3c3.4,0,4.1-4.3,4.1-7.1s-0.7-7.1-4.1-7.1s-4.1,4.3-4.1,7.1S172.9,49.3,176.3,49.3 M169.1,42.2
		c0-5.1,2.8-8.2,7.1-8.2c4.3,0,7.1,3.1,7.1,8.2s-2.8,8.2-7.1,8.2C171.9,50.4,169.1,47.3,169.1,42.2"/>
	<path class="st1" d="M153.3,56H5.5v0.9h148.6C153.8,56.5,153.5,56.3,153.3,56"/>
	<path class="st1" d="M183.1,56h-14.6c-0.3,0.3-0.7,0.6-1,0.9h15.6V56z"/>
</g>
<rect x="215.8" y="0.5" class="st0" width="1.1" height="80.2"/>
<path class="st2" d="M259.8,37.3h-6.2v17.4H250V37.3h-6.2v-2.8h15.9v2.8H259.8z"/>
<path class="st2" d="M269.9,46.9h-4v7.7h-3.5V34.4h7c2.4,0,4.1,0.5,5.4,1.6c1.3,1.1,1.9,2.5,1.9,4.5c0,1.3-0.3,2.5-0.9,3.5
	c-0.7,0.9-1.6,1.6-2.7,2.1l4.5,8.4v0.1h-3.8L269.9,46.9z M265.9,44h3.6c1.2,0,2.1-0.3,2.8-0.9c0.7-0.5,1.1-1.5,1.1-2.4
	c0-1.1-0.3-1.9-0.9-2.5c-0.7-0.5-1.6-0.9-2.8-0.9h-3.7V44z"/>
<path class="st2" d="M283.8,54.6h-3.5V34.4h3.5V54.6z"/>
<path class="st2" d="M302.3,37.3H296v17.4h-3.6V37.3h-6.2v-2.8h15.9v2.8H302.3z"/>
<path class="st2" d="M320.6,45c0,2-0.4,3.7-1.1,5.2c-0.7,1.5-1.6,2.7-2.9,3.5c-1.3,0.8-2.8,1.2-4.4,1.2c-1.6,0-3.1-0.4-4.4-1.2
	c-1.3-0.8-2.3-2-2.9-3.5c-0.7-1.5-1.1-3.2-1.1-5V44c0-2,0.4-3.7,1.1-5.2c0.7-1.5,1.7-2.7,2.9-3.5c1.3-0.8,2.8-1.2,4.4-1.2
	s3.1,0.4,4.4,1.2c1.3,0.8,2.3,1.9,2.9,3.5c0.7,1.5,1.1,3.2,1.1,5.2V45z M317.1,44c0-2.3-0.4-4-1.3-5.2c-0.8-1.2-2-1.7-3.6-1.7
	c-1.5,0-2.7,0.5-3.6,1.7c-0.8,1.2-1.3,2.9-1.3,5V45c0,2.3,0.4,4,1.3,5.2c0.8,1.2,2.1,1.9,3.6,1.9c1.6,0,2.8-0.5,3.6-1.7
	c0.8-1.2,1.2-2.9,1.2-5.2V44H317.1z"/>
<path class="st2" d="M340.1,54.6h-3.5l-9-14.3v14.3h-3.5V34.4h3.5l9,14.3V34.4h3.5V54.6z"/>
<path class="st3" d="M347.7,51.8h9.2v2.8h-12.6V34.4h3.5V51.8z"/>
<path class="st3" d="M363.2,54.6h-3.5V34.4h3.5V54.6z"/>
<path class="st3" d="M383.5,54.6h-3.5l-9-14.3v14.3h-3.5V34.4h3.5l9,14.3V34.4h3.5V54.6z"/>
<path class="st3" d="M393.5,45.9l-2.3,2.4v6.2h-3.5V34.4h3.5v9.4l2-2.4l5.8-7h4.2l-7.4,8.9l8,11.3h-4.1L393.5,45.9z"/>
</svg>
