<?xml version="1.0" encoding="utf-8"?>
<!-- Generator: Adobe Illustrator 24.3.0, SVG Export Plug-In . SVG Version: 6.00 Build 0)  -->
<svg version="1.1" id="_x33_color" xmlns="http://www.w3.org/2000/svg" xmlns:xlink="http://www.w3.org/1999/xlink" x="0px" y="0px"
	 viewBox="0 0 404.2 81.22" style="enable-background:new 0 0 404.2 81.22;" xml:space="preserve">
<style type="text/css">
	.st0{fill:#0E284B;}
	.st1{fill:#C89211;}
	.st2{fill:#125A83;}
	.st3{fill:#EDB025;}
</style>
<g>
	<g>
		<path class="st0" d="M26.43,41.3c0,6.41-0.94,11.28-10.67,11.28c-9.69,0-11.19-4.68-11.19-11.28V25.71c0-3.51-1.5-3.84-4.07-3.84
			v-0.94h12.31v0.94c-2.53,0-4.07,0.33-4.07,3.84V41.3c0,4.78,1.12,9.46,7.21,9.46c6.74,0,7.82-3.89,7.82-9.46V25.71
			c0-3.51-1.55-3.84-4.07-3.84v-0.94h10.81v0.94c-2.58,0-4.07,0.33-4.07,3.84V41.3z"/>
		<path class="st0" d="M52.32,51.31c-2.29,0.84-4.92,1.26-8.38,1.26c-9.36,0-13.86-7.12-13.86-17.09c0-8.66,2.81-15.03,12.83-15.03
			c3.75,0,6.93,0.75,8.99,1.31l0.42,7.35h-1.17c-0.61-2.62-2.48-6.83-8.29-6.83c-7.54,0-8.14,8.01-8.14,12.83
			c0,6.04,1.31,15.35,11.56,15.35c3.14,0,4.82-0.7,6.04-1.17V51.31z"/>
		<path class="st0" d="M77.46,27.68c-0.42-2.48-2.29-5.38-7.3-5.38c-3.14,0-5.9,2.01-5.9,5.1c0,4.17,5.57,5.52,9.64,7.91
			c3.7,2.15,6.18,4.07,6.18,8.52c0,5.95-5.15,8.75-11.56,8.75c-3.18,0-6.88-0.7-8.05-0.89l-0.33-6.6h1.17
			c0.37,2.48,2.57,5.38,7.58,5.38c4.12,0,6.79-2.67,6.79-5.9c0-5.05-7.77-6.6-12.12-9.92c-2.06-1.59-3.04-3.28-3.04-6.27
			c0-5.62,4.64-7.91,10.53-7.91c3.14,0,5.15,0.37,7.25,0.79l0.33,6.41H77.46z"/>
		<path class="st0" d="M93.05,42.87c-1.96,0.04-7.29,0.42-7.29,4.29c0,2.17,1.42,3.62,2.83,3.62c2.71,0,4.46-2.62,4.46-5.46V42.87z
			 M99.22,52.15c-0.5,0.12-1.54,0.38-3.04,0.38c-2.41,0-3.12-1.25-3.12-3.04h-0.08c-1.29,1.88-3.08,3.04-5.91,3.04
			c-2.87,0-5-2-5-4.71c0-6.04,7.83-6.04,10.99-6.33v-1.58c0-2.92-0.04-6-3.54-6c-2.58,0-2.92,1.08-2.92,2.42
			c0,1.71-1.25,2.17-1.96,2.17c-1.12,0-2-0.75-2-1.88c0-2.71,4.04-4.08,6.91-4.08c5.7,0,6.74,2.75,6.74,6.62v10.33
			c0,1.46,0.5,1.96,1.79,1.96c0.38,0,0.75-0.08,1.12-0.17V52.15z"/>
		<path class="st0" d="M100.13,51.4c1.75,0,3.16-0.37,3.16-3.08V36.95c0-2.5-1.96-2.62-3.16-2.71v-0.71l6.41-1v5.5h0.08
			c0.58-1.54,2.46-5.5,6.58-5.5c4.41,0,4.83,2.41,4.83,6.29v9.49c0,2.71,1.42,3.08,3.16,3.08v0.71h-9.58V51.4
			c1.75,0,3.16-0.37,3.16-3.08v-8.58c0-3.58-0.04-5.2-2.79-5.2c-2.46,0-5.46,4.71-5.46,8.66v5.12c0,2.71,1.42,3.08,3.16,3.08v0.71
			h-9.58V51.4z"/>
		<path class="st0" d="M134.21,46.35c0,3.42,0.38,3.93,2.72,3.93c8.05,0,11.38-4.31,11.38-13.72c0-8.61-2.48-13.81-11.38-13.81
			c-2.34,0-2.72,0.28-2.72,3.93V46.35z M125.97,51.18c2.53,0,4.07-0.33,4.07-3.84V25.71c0-3.51-1.55-3.84-4.07-3.84v-0.94h10.95
			c7.77,0,16.01,1.69,16.01,15.64c0,13.9-8.66,15.54-16.01,15.54h-10.95V51.18z"/>
		<path class="st0" d="M156.93,26.33c0-1.33,1.04-2.37,2.37-2.37c1.33,0,2.37,1.04,2.37,2.37c0,1.33-1.04,2.37-2.37,2.37
			C157.97,28.71,156.93,27.66,156.93,26.33 M154.64,51.4c1.75,0,3.16-0.37,3.16-3.08V36.95c0-2.5-1.92-2.62-3.16-2.71v-0.71l6.41-1
			v15.78c0,2.71,1.42,3.08,3.16,3.08v0.71h-9.58V51.4z"/>
		<path class="st0" d="M176.12,38.99c0-2.21-0.75-5.08-3.96-5.08c-3.16,0-4.45,3.54-4.45,5.08H176.12z M179.29,51.78
			c-1,0.38-2.42,0.75-4.96,0.75c-6.45,0-10.08-3.54-10.08-10.53c0-6.08,2.46-9.45,8.45-9.45c3.75,0,7.12,2.08,7.12,6.91v0.92h-12.12
			c0,3.5,1.71,10.62,8.66,10.62c0.96,0,2.08-0.13,2.91-0.54V51.78z"/>
		<path class="st0" d="M189.78,44.49c3.5,0,3.96-2.75,3.96-4.96c0-3.12-1.08-5.62-4.08-5.62c-3.29,0-3.92,2.42-3.92,4.83
			C185.74,41.91,186.78,44.49,189.78,44.49 M186.16,51.74c-0.83,0.62-2,1.33-2,3.21c0,2.46,2.21,4.58,5.83,4.58
			c3.79,0,7.29-1.96,7.29-4.95c0-2.12-1.75-2.83-3.83-2.83H186.16z M193.36,48.78c2,0,6.62,0.08,6.62,4.71
			c0,4.75-4.66,7.41-10.2,7.41c-4.08,0-8.33-1.54-8.33-5.29c0-2.58,1.91-3.71,3.25-4.37c-0.71-0.42-1.79-1.21-1.79-2.96
			c0-1.54,1.33-3.12,1.79-3.62c-0.96-0.79-2.42-2.04-2.42-5.58c0-5.37,3.92-6.54,7.87-6.54c1.91,0,2.96,0.33,4.29,1.04
			c0.66-1.58,1.67-4.46,4.21-4.46c1.17,0,2,0.75,2,2c0,1.12-0.71,1.87-1.96,1.87c-1.08,0-1.33-0.58-1.88-0.58
			c-0.92,0-1.29,1.21-1.5,1.87c0.5,0.54,1.88,2.08,1.88,5c0,4.21-2.62,6.58-7.62,6.58c-1.67,0-2.87-0.21-3.79-0.63
			c-0.25,0.33-0.75,0.96-0.75,1.88c0,1.67,2.08,1.67,3.41,1.67H193.36z"/>
		<path class="st0" d="M208.73,51.15c4.16,0,5-5.16,5-8.62c0-3.46-0.83-8.62-5-8.62c-4.17,0-5,5.16-5,8.62
			C203.73,45.99,204.56,51.15,208.73,51.15 M200.02,42.53c0-6.25,3.37-9.99,8.7-9.99c5.33,0,8.7,3.75,8.7,9.99s-3.37,9.99-8.7,9.99
			C203.4,52.53,200.02,48.78,200.02,42.53"/>
		<path class="st1" d="M180.71,59.29H0.5v1.06h181.22C181.34,60.02,181,59.67,180.71,59.29"/>
		<path class="st1" d="M217.1,59.29h-17.8c-0.38,0.38-0.79,0.73-1.24,1.06h19.04V59.29z"/>
	</g>
	<rect x="248.53" y="0.5" class="st0" width="1.1" height="80.22"/>
	<g>
		<path class="st2" d="M296.58,27.11c-5.06-0.04-9.09,1.87-11.77,5.53V14.86h-4.1v48.8h4.1v-4.62c2.78,3.58,6.75,5.47,11.65,5.47
			c0.04,0,0.08,0,0.12,0c5.22,0.02,9.42-1.87,12.21-5.62c2.51-3.35,3.72-7.73,3.72-13.05c0-5.27-1.21-9.64-3.72-12.99
			C305.97,29.03,301.77,27.09,296.58,27.11z M305.67,56.27c-2.14,3-5.03,4.44-9.08,4.46c-4.05-0.02-6.92-1.46-9.02-4.45l-0.83,0.57
			l0.82-0.58c-1.8-2.56-2.75-6.01-2.75-10.43c0-4.38,0.95-7.83,2.75-10.44c2.06-2.99,4.91-4.43,9.01-4.45
			c4.05,0.02,6.94,1.46,9.08,4.46c1.8,2.61,2.75,6.06,2.75,10.43C308.41,50.26,307.47,53.71,305.67,56.27z M318.19,63.66h4.03v-48.8
			h-4.03V63.66z M329.59,63.66h4.03V27.82h-4.03V63.66z M355.3,27.1c-4.39-0.03-7.95,1.34-10.4,4.02v-3.3h-4.1v35.83h4.1V44.53
			c0-1.29,0.03-2.41,0.1-3.35c0.06-0.96,0.14-1.76,0.22-2.38c1.05-5.33,4.06-7.7,10.15-7.8c3.31,0.01,5.42,0.91,6.7,2.54
			c1.09,1.4,1.75,3.84,1.74,7.33l0,22.77h4.1V40.23c0-4.19-1.01-7.51-3.18-9.79C362.55,28.17,359.32,27.1,355.3,27.1z M388.85,41.27
			l13.45-13.45h-5.38l-18.06,17.88V14.86h-4.1v48.8h4.1V51.02l7.1-6.88l12.99,19.51h4.76L388.85,41.27z"/>
		<path class="st3" d="M334.75,18.45c0,1.77-1.43,3.2-3.2,3.2c-1.77,0-3.2-1.43-3.2-3.2c0-1.77,1.43-3.2,3.2-3.2
			C333.32,15.24,334.75,16.68,334.75,18.45z"/>
	</g>
</g>
</svg>
